<?xml version="1.0" encoding="UTF-8"?>
<svg xmlns="http://www.w3.org/2000/svg" width="936" height="312" viewBox="0 0 936 312" role="img" aria-label="NEZYX neon banner">
  <defs>
    <!-- Neon gradient -->
    <linearGradient id="grad" x1="0%" y1="0%" x2="100%" y2="100%">
      <stop offset="0%" stop-color="#00E5FF"/>
      <stop offset="55%" stop-color="#4FD3FF"/>
      <stop offset="100%" stop-color="#E100FF"/>
    </linearGradient>
    <!-- Outer glow -->
    <filter id="glow" x="-50%" y="-50%" width="200%" height="200%">
      <feGaussianBlur stdDeviation="8.399999999999999" result="blur"/>
      <feMerge>
        <feMergeNode in="blur"/>
        <feMergeNode in="SourceGraphic"/>
      </feMerge>
    </filter>
  </defs>
  <!-- Background -->
  <rect width="100%" height="100%" fill="#0B1020"/>
  <!-- Subtle grid -->
  <g opacity="0.35"><line x1="0" y1="0" x2="0" y2="312" stroke="#14203B" stroke-width="1"/><line x1="24" y1="0" x2="24" y2="312" stroke="#14203B" stroke-width="1"/><line x1="48" y1="0" x2="48" y2="312" stroke="#14203B" stroke-width="1"/><line x1="72" y1="0" x2="72" y2="312" stroke="#14203B" stroke-width="1"/><line x1="96" y1="0" x2="96" y2="312" stroke="#14203B" stroke-width="1"/><line x1="120" y1="0" x2="120" y2="312" stroke="#14203B" stroke-width="1"/><line x1="144" y1="0" x2="144" y2="312" stroke="#14203B" stroke-width="1"/><line x1="168" y1="0" x2="168" y2="312" stroke="#14203B" stroke-width="1"/><line x1="192" y1="0" x2="192" y2="312" stroke="#14203B" stroke-width="1"/><line x1="216" y1="0" x2="216" y2="312" stroke="#14203B" stroke-width="1"/><line x1="240" y1="0" x2="240" y2="312" stroke="#14203B" stroke-width="1"/><line x1="264" y1="0" x2="264" y2="312" stroke="#14203B" stroke-width="1"/><line x1="288" y1="0" x2="288" y2="312" stroke="#14203B" stroke-width="1"/><line x1="312" y1="0" x2="312" y2="312" stroke="#14203B" stroke-width="1"/><line x1="336" y1="0" x2="336" y2="312" stroke="#14203B" stroke-width="1"/><line x1="360" y1="0" x2="360" y2="312" stroke="#14203B" stroke-width="1"/><line x1="384" y1="0" x2="384" y2="312" stroke="#14203B" stroke-width="1"/><line x1="408" y1="0" x2="408" y2="312" stroke="#14203B" stroke-width="1"/><line x1="432" y1="0" x2="432" y2="312" stroke="#14203B" stroke-width="1"/><line x1="456" y1="0" x2="456" y2="312" stroke="#14203B" stroke-width="1"/><line x1="480" y1="0" x2="480" y2="312" stroke="#14203B" stroke-width="1"/><line x1="504" y1="0" x2="504" y2="312" stroke="#14203B" stroke-width="1"/><line x1="528" y1="0" x2="528" y2="312" stroke="#14203B" stroke-width="1"/><line x1="552" y1="0" x2="552" y2="312" stroke="#14203B" stroke-width="1"/><line x1="576" y1="0" x2="576" y2="312" stroke="#14203B" stroke-width="1"/><line x1="600" y1="0" x2="600" y2="312" stroke="#14203B" stroke-width="1"/><line x1="624" y1="0" x2="624" y2="312" stroke="#14203B" stroke-width="1"/><line x1="648" y1="0" x2="648" y2="312" stroke="#14203B" stroke-width="1"/><line x1="672" y1="0" x2="672" y2="312" stroke="#14203B" stroke-width="1"/><line x1="696" y1="0" x2="696" y2="312" stroke="#14203B" stroke-width="1"/><line x1="720" y1="0" x2="720" y2="312" stroke="#14203B" stroke-width="1"/><line x1="744" y1="0" x2="744" y2="312" stroke="#14203B" stroke-width="1"/><line x1="768" y1="0" x2="768" y2="312" stroke="#14203B" stroke-width="1"/><line x1="792" y1="0" x2="792" y2="312" stroke="#14203B" stroke-width="1"/><line x1="816" y1="0" x2="816" y2="312" stroke="#14203B" stroke-width="1"/><line x1="840" y1="0" x2="840" y2="312" stroke="#14203B" stroke-width="1"/><line x1="864" y1="0" x2="864" y2="312" stroke="#14203B" stroke-width="1"/><line x1="888" y1="0" x2="888" y2="312" stroke="#14203B" stroke-width="1"/><line x1="912" y1="0" x2="912" y2="312" stroke="#14203B" stroke-width="1"/><line x1="936" y1="0" x2="936" y2="312" stroke="#14203B" stroke-width="1"/><line x1="0" y1="0" x2="936" y2="0" stroke="#14203B" stroke-width="1"/><line x1="0" y1="24" x2="936" y2="24" stroke="#14203B" stroke-width="1"/><line x1="0" y1="48" x2="936" y2="48" stroke="#14203B" stroke-width="1"/><line x1="0" y1="72" x2="936" y2="72" stroke="#14203B" stroke-width="1"/><line x1="0" y1="96" x2="936" y2="96" stroke="#14203B" stroke-width="1"/><line x1="0" y1="120" x2="936" y2="120" stroke="#14203B" stroke-width="1"/><line x1="0" y1="144" x2="936" y2="144" stroke="#14203B" stroke-width="1"/><line x1="0" y1="168" x2="936" y2="168" stroke="#14203B" stroke-width="1"/><line x1="0" y1="192" x2="936" y2="192" stroke="#14203B" stroke-width="1"/><line x1="0" y1="216" x2="936" y2="216" stroke="#14203B" stroke-width="1"/><line x1="0" y1="240" x2="936" y2="240" stroke="#14203B" stroke-width="1"/><line x1="0" y1="264" x2="936" y2="264" stroke="#14203B" stroke-width="1"/><line x1="0" y1="288" x2="936" y2="288" stroke="#14203B" stroke-width="1"/><line x1="0" y1="312" x2="936" y2="312" stroke="#14203B" stroke-width="1"/></g>
  <!-- Letters -->
  <g>
    <rect x="72" y="72" width="24" height="24" rx="4.32" ry="4.32" fill="url(#grad)" stroke="#8B5CF6" stroke-width="2.88" filter="url(#glow)"/><rect x="168" y="72" width="24" height="24" rx="4.32" ry="4.32" fill="url(#grad)" stroke="#8B5CF6" stroke-width="2.88" filter="url(#glow)"/><rect x="72" y="96" width="24" height="24" rx="4.32" ry="4.32" fill="url(#grad)" stroke="#8B5CF6" stroke-width="2.88" filter="url(#glow)"/><rect x="96" y="96" width="24" height="24" rx="4.32" ry="4.32" fill="url(#grad)" stroke="#8B5CF6" stroke-width="2.88" filter="url(#glow)"/><rect x="168" y="96" width="24" height="24" rx="4.32" ry="4.32" fill="url(#grad)" stroke="#8B5CF6" stroke-width="2.88" filter="url(#glow)"/><rect x="72" y="120" width="24" height="24" rx="4.32" ry="4.32" fill="url(#grad)" stroke="#8B5CF6" stroke-width="2.88" filter="url(#glow)"/><rect x="120" y="120" width="24" height="24" rx="4.32" ry="4.32" fill="url(#grad)" stroke="#8B5CF6" stroke-width="2.88" filter="url(#glow)"/><rect x="168" y="120" width="24" height="24" rx="4.32" ry="4.32" fill="url(#grad)" stroke="#8B5CF6" stroke-width="2.88" filter="url(#glow)"/><rect x="72" y="144" width="24" height="24" rx="4.32" ry="4.32" fill="url(#grad)" stroke="#8B5CF6" stroke-width="2.88" filter="url(#glow)"/><rect x="144" y="144" width="24" height="24" rx="4.32" ry="4.32" fill="url(#grad)" stroke="#8B5CF6" stroke-width="2.88" filter="url(#glow)"/><rect x="168" y="144" width="24" height="24" rx="4.32" ry="4.32" fill="url(#grad)" stroke="#8B5CF6" stroke-width="2.88" filter="url(#glow)"/><rect x="72" y="168" width="24" height="24" rx="4.32" ry="4.32" fill="url(#grad)" stroke="#8B5CF6" stroke-width="2.88" filter="url(#glow)"/><rect x="168" y="168" width="24" height="24" rx="4.32" ry="4.32" fill="url(#grad)" stroke="#8B5CF6" stroke-width="2.88" filter="url(#glow)"/><rect x="72" y="192" width="24" height="24" rx="4.32" ry="4.32" fill="url(#grad)" stroke="#8B5CF6" stroke-width="2.88" filter="url(#glow)"/><rect x="168" y="192" width="24" height="24" rx="4.32" ry="4.32" fill="url(#grad)" stroke="#8B5CF6" stroke-width="2.88" filter="url(#glow)"/><rect x="72" y="216" width="24" height="24" rx="4.32" ry="4.32" fill="url(#grad)" stroke="#8B5CF6" stroke-width="2.88" filter="url(#glow)"/><rect x="168" y="216" width="24" height="24" rx="4.32" ry="4.32" fill="url(#grad)" stroke="#8B5CF6" stroke-width="2.88" filter="url(#glow)"/><rect x="240" y="72" width="24" height="24" rx="4.32" ry="4.32" fill="url(#grad)" stroke="#8B5CF6" stroke-width="2.88" filter="url(#glow)"/><rect x="264" y="72" width="24" height="24" rx="4.32" ry="4.32" fill="url(#grad)" stroke="#8B5CF6" stroke-width="2.88" filter="url(#glow)"/><rect x="288" y="72" width="24" height="24" rx="4.32" ry="4.32" fill="url(#grad)" stroke="#8B5CF6" stroke-width="2.88" filter="url(#glow)"/><rect x="312" y="72" width="24" height="24" rx="4.32" ry="4.32" fill="url(#grad)" stroke="#8B5CF6" stroke-width="2.88" filter="url(#glow)"/><rect x="336" y="72" width="24" height="24" rx="4.32" ry="4.32" fill="url(#grad)" stroke="#8B5CF6" stroke-width="2.88" filter="url(#glow)"/><rect x="240" y="96" width="24" height="24" rx="4.32" ry="4.32" fill="url(#grad)" stroke="#8B5CF6" stroke-width="2.88" filter="url(#glow)"/><rect x="240" y="120" width="24" height="24" rx="4.32" ry="4.32" fill="url(#grad)" stroke="#8B5CF6" stroke-width="2.88" filter="url(#glow)"/><rect x="264" y="120" width="24" height="24" rx="4.32" ry="4.32" fill="url(#grad)" stroke="#8B5CF6" stroke-width="2.88" filter="url(#glow)"/><rect x="288" y="120" width="24" height="24" rx="4.32" ry="4.32" fill="url(#grad)" stroke="#8B5CF6" stroke-width="2.88" filter="url(#glow)"/><rect x="312" y="120" width="24" height="24" rx="4.32" ry="4.32" fill="url(#grad)" stroke="#8B5CF6" stroke-width="2.88" filter="url(#glow)"/><rect x="240" y="144" width="24" height="24" rx="4.32" ry="4.32" fill="url(#grad)" stroke="#8B5CF6" stroke-width="2.88" filter="url(#glow)"/><rect x="240" y="168" width="24" height="24" rx="4.32" ry="4.32" fill="url(#grad)" stroke="#8B5CF6" stroke-width="2.88" filter="url(#glow)"/><rect x="264" y="168" width="24" height="24" rx="4.32" ry="4.32" fill="url(#grad)" stroke="#8B5CF6" stroke-width="2.88" filter="url(#glow)"/><rect x="288" y="168" width="24" height="24" rx="4.32" ry="4.32" fill="url(#grad)" stroke="#8B5CF6" stroke-width="2.88" filter="url(#glow)"/><rect x="312" y="168" width="24" height="24" rx="4.32" ry="4.32" fill="url(#grad)" stroke="#8B5CF6" stroke-width="2.88" filter="url(#glow)"/><rect x="240" y="192" width="24" height="24" rx="4.32" ry="4.32" fill="url(#grad)" stroke="#8B5CF6" stroke-width="2.88" filter="url(#glow)"/><rect x="240" y="216" width="24" height="24" rx="4.32" ry="4.32" fill="url(#grad)" stroke="#8B5CF6" stroke-width="2.88" filter="url(#glow)"/><rect x="264" y="216" width="24" height="24" rx="4.32" ry="4.32" fill="url(#grad)" stroke="#8B5CF6" stroke-width="2.88" filter="url(#glow)"/><rect x="288" y="216" width="24" height="24" rx="4.32" ry="4.32" fill="url(#grad)" stroke="#8B5CF6" stroke-width="2.88" filter="url(#glow)"/><rect x="312" y="216" width="24" height="24" rx="4.32" ry="4.32" fill="url(#grad)" stroke="#8B5CF6" stroke-width="2.88" filter="url(#glow)"/><rect x="336" y="216" width="24" height="24" rx="4.32" ry="4.32" fill="url(#grad)" stroke="#8B5CF6" stroke-width="2.88" filter="url(#glow)"/><rect x="408" y="72" width="24" height="24" rx="4.32" ry="4.32" fill="url(#grad)" stroke="#8B5CF6" stroke-width="2.88" filter="url(#glow)"/><rect x="432" y="72" width="24" height="24" rx="4.32" ry="4.32" fill="url(#grad)" stroke="#8B5CF6" stroke-width="2.88" filter="url(#glow)"/><rect x="456" y="72" width="24" height="24" rx="4.32" ry="4.32" fill="url(#grad)" stroke="#8B5CF6" stroke-width="2.88" filter="url(#glow)"/><rect x="480" y="72" width="24" height="24" rx="4.32" ry="4.32" fill="url(#grad)" stroke="#8B5CF6" stroke-width="2.88" filter="url(#glow)"/><rect x="504" y="72" width="24" height="24" rx="4.32" ry="4.32" fill="url(#grad)" stroke="#8B5CF6" stroke-width="2.88" filter="url(#glow)"/><rect x="504" y="96" width="24" height="24" rx="4.32" ry="4.32" fill="url(#grad)" stroke="#8B5CF6" stroke-width="2.88" filter="url(#glow)"/><rect x="480" y="120" width="24" height="24" rx="4.32" ry="4.32" fill="url(#grad)" stroke="#8B5CF6" stroke-width="2.88" filter="url(#glow)"/><rect x="456" y="144" width="24" height="24" rx="4.32" ry="4.32" fill="url(#grad)" stroke="#8B5CF6" stroke-width="2.88" filter="url(#glow)"/><rect x="432" y="168" width="24" height="24" rx="4.32" ry="4.32" fill="url(#grad)" stroke="#8B5CF6" stroke-width="2.88" filter="url(#glow)"/><rect x="408" y="192" width="24" height="24" rx="4.32" ry="4.32" fill="url(#grad)" stroke="#8B5CF6" stroke-width="2.88" filter="url(#glow)"/><rect x="408" y="216" width="24" height="24" rx="4.32" ry="4.32" fill="url(#grad)" stroke="#8B5CF6" stroke-width="2.88" filter="url(#glow)"/><rect x="432" y="216" width="24" height="24" rx="4.32" ry="4.32" fill="url(#grad)" stroke="#8B5CF6" stroke-width="2.88" filter="url(#glow)"/><rect x="456" y="216" width="24" height="24" rx="4.32" ry="4.32" fill="url(#grad)" stroke="#8B5CF6" stroke-width="2.88" filter="url(#glow)"/><rect x="480" y="216" width="24" height="24" rx="4.32" ry="4.32" fill="url(#grad)" stroke="#8B5CF6" stroke-width="2.88" filter="url(#glow)"/><rect x="504" y="216" width="24" height="24" rx="4.32" ry="4.32" fill="url(#grad)" stroke="#8B5CF6" stroke-width="2.88" filter="url(#glow)"/><rect x="576" y="72" width="24" height="24" rx="4.32" ry="4.32" fill="url(#grad)" stroke="#8B5CF6" stroke-width="2.88" filter="url(#glow)"/><rect x="672" y="72" width="24" height="24" rx="4.32" ry="4.32" fill="url(#grad)" stroke="#8B5CF6" stroke-width="2.88" filter="url(#glow)"/><rect x="600" y="96" width="24" height="24" rx="4.32" ry="4.32" fill="url(#grad)" stroke="#8B5CF6" stroke-width="2.88" filter="url(#glow)"/><rect x="648" y="96" width="24" height="24" rx="4.32" ry="4.32" fill="url(#grad)" stroke="#8B5CF6" stroke-width="2.88" filter="url(#glow)"/><rect x="624" y="120" width="24" height="24" rx="4.32" ry="4.32" fill="url(#grad)" stroke="#8B5CF6" stroke-width="2.88" filter="url(#glow)"/><rect x="624" y="144" width="24" height="24" rx="4.32" ry="4.32" fill="url(#grad)" stroke="#8B5CF6" stroke-width="2.88" filter="url(#glow)"/><rect x="624" y="168" width="24" height="24" rx="4.32" ry="4.32" fill="url(#grad)" stroke="#8B5CF6" stroke-width="2.88" filter="url(#glow)"/><rect x="624" y="192" width="24" height="24" rx="4.32" ry="4.32" fill="url(#grad)" stroke="#8B5CF6" stroke-width="2.88" filter="url(#glow)"/><rect x="624" y="216" width="24" height="24" rx="4.32" ry="4.32" fill="url(#grad)" stroke="#8B5CF6" stroke-width="2.88" filter="url(#glow)"/><rect x="744" y="72" width="24" height="24" rx="4.32" ry="4.32" fill="url(#grad)" stroke="#8B5CF6" stroke-width="2.88" filter="url(#glow)"/><rect x="840" y="72" width="24" height="24" rx="4.32" ry="4.32" fill="url(#grad)" stroke="#8B5CF6" stroke-width="2.88" filter="url(#glow)"/><rect x="768" y="96" width="24" height="24" rx="4.32" ry="4.32" fill="url(#grad)" stroke="#8B5CF6" stroke-width="2.88" filter="url(#glow)"/><rect x="816" y="96" width="24" height="24" rx="4.32" ry="4.32" fill="url(#grad)" stroke="#8B5CF6" stroke-width="2.88" filter="url(#glow)"/><rect x="792" y="120" width="24" height="24" rx="4.32" ry="4.32" fill="url(#grad)" stroke="#8B5CF6" stroke-width="2.88" filter="url(#glow)"/><rect x="792" y="144" width="24" height="24" rx="4.32" ry="4.32" fill="url(#grad)" stroke="#8B5CF6" stroke-width="2.88" filter="url(#glow)"/><rect x="792" y="168" width="24" height="24" rx="4.32" ry="4.32" fill="url(#grad)" stroke="#8B5CF6" stroke-width="2.88" filter="url(#glow)"/><rect x="768" y="192" width="24" height="24" rx="4.32" ry="4.32" fill="url(#grad)" stroke="#8B5CF6" stroke-width="2.88" filter="url(#glow)"/><rect x="816" y="192" width="24" height="24" rx="4.32" ry="4.32" fill="url(#grad)" stroke="#8B5CF6" stroke-width="2.88" filter="url(#glow)"/><rect x="744" y="216" width="24" height="24" rx="4.32" ry="4.32" fill="url(#grad)" stroke="#8B5CF6" stroke-width="2.88" filter="url(#glow)"/><rect x="840" y="216" width="24" height="24" rx="4.32" ry="4.32" fill="url(#grad)" stroke="#8B5CF6" stroke-width="2.88" filter="url(#glow)"/>
  </g>
</svg>
